<svg width="17" height="16" viewBox="0 0 17 16" fill="none" xmlns="http://www.w3.org/2000/svg">
<path d="M1.7998 15.7C1.38314 15.7 1.02897 15.5542 0.737305 15.2625C0.445638 14.9709 0.299805 14.6167 0.299805 14.2V1.80005C0.299805 1.38338 0.445638 1.02922 0.737305 0.737549C1.02897 0.445882 1.38314 0.300049 1.7998 0.300049H14.1998C14.3831 0.300049 14.5581 0.329215 14.7248 0.387549C14.8915 0.445882 15.0415 0.533382 15.1748 0.650049L14.6498 1.17505C14.5998 1.12505 14.5373 1.08338 14.4623 1.05005C14.3873 1.01672 14.2998 1.00005 14.1998 1.00005H1.7998C1.56647 1.00005 1.3748 1.07505 1.2248 1.22505C1.0748 1.37505 0.999805 1.56672 0.999805 1.80005V14.2C0.999805 14.4334 1.0748 14.625 1.2248 14.775C1.3748 14.925 1.56647 15 1.7998 15H14.1998C14.4331 15 14.6248 14.925 14.7748 14.775C14.9248 14.625 14.9998 14.4334 14.9998 14.2V7.42505L15.6998 6.72505V14.2C15.6998 14.6167 15.554 14.9709 15.2623 15.2625C14.9706 15.5542 14.6165 15.7 14.1998 15.7H1.7998ZM7.5248 12.075L3.2998 7.85005L3.7998 7.35005L7.5498 11.1L16.2248 2.42505L16.6998 2.90005L7.5248 12.075Z" fill="#9E7B2F"/>
</svg>
