<svg width="265" height="108" viewBox="0 0 265 108" fill="none" xmlns="http://www.w3.org/2000/svg">
<mask id="mask0_4011_3" style="mask-type:luminance" maskUnits="userSpaceOnUse" x="99" y="25" width="31" height="32">
<path d="M122.147 52.9877L120.968 49.6827L120.319 47.8608L117.131 38.9208L116.938 38.3781L116.481 37.0955L116.025 38.3781L115.831 38.9208L110.815 52.9877L100.845 25.0303H99.5415L110.165 54.8061L110.383 55.418L110.815 56.6314L111.244 55.4215L111.465 54.8061L116.481 40.7462L119.669 49.6827L120.319 51.5046L121.497 54.8061L121.715 55.4215L122.147 56.6314L122.576 55.418L122.794 54.8061L129.113 37.0955H127.814L122.147 52.9877Z" fill="white"/>
</mask>
<g mask="url(#mask0_4011_3)">
<path d="M121.719 12.2252L85.8579 32.9297L106.934 69.4346L142.795 48.7301L121.719 12.2252Z" fill="url(#paint0_linear_4011_3)"/>
</g>
<mask id="mask1_4011_3" style="mask-type:luminance" maskUnits="userSpaceOnUse" x="121" y="24" width="38" height="33">
<path d="M144.982 39.573L140.443 26.8509L140.225 26.239L140.138 25.9901H146.264V25.9659C147.134 26.0018 147.989 26.1963 148.788 26.5398C150.571 27.2958 151.99 28.7169 152.743 30.5016C153.126 31.4127 153.324 32.3912 153.324 33.3796C153.324 34.3681 153.126 35.3465 152.743 36.2577C151.99 38.034 150.579 39.4501 148.805 40.2091C147.895 40.5963 146.915 40.7928 145.926 40.7864H145.431L144.982 39.573ZM132.191 24.673V26.0074H139.45L139.361 26.2529L139.139 26.8682L134.127 40.9282L130.936 31.9882L130.289 30.1559L129.114 26.8579L128.893 26.2425L128.464 25.0325L128.032 26.2425L127.814 26.8579L121.515 44.5132H122.815L128.464 28.6728L129.643 31.9778L130.289 33.7997L133.477 42.7397L133.573 43.0128L133.674 43.2824L133.902 43.9255L134.13 44.565L134.586 43.2824L134.78 42.7397L139.796 28.6728L142.562 36.4547L143.34 38.643L143.882 40.1745L144.104 40.7899H140.443V42.0759H144.57L149.3 55.3235H138.607V56.6302H151.052L150.586 55.3235L146.752 44.5719L157.016 56.6337H158.623L146.237 42.069C147.285 42.0337 148.317 41.8051 149.282 41.3949C151.368 40.508 153.028 38.8476 153.915 36.7624C154.364 35.69 154.596 34.5389 154.596 33.3762C154.596 32.2134 154.364 31.0623 153.915 29.99C153.028 27.9048 151.368 26.2444 149.282 25.3575C148.212 24.8976 147.059 24.6623 145.894 24.6661L132.191 24.673Z" fill="white"/>
</mask>
<g mask="url(#mask1_4011_3)">
<path d="M149.359 8.60007L107.681 32.6631L130.798 72.7038L172.477 48.6408L149.359 8.60007Z" fill="url(#paint1_linear_4011_3)"/>
</g>
<mask id="mask2_4011_3" style="mask-type:luminance" maskUnits="userSpaceOnUse" x="127" y="34" width="3" height="3">
<path d="M127.813 35.6567C127.813 35.827 127.864 35.9934 127.959 36.135C128.053 36.2765 128.188 36.3868 128.345 36.452C128.502 36.5172 128.675 36.5342 128.842 36.501C129.009 36.4678 129.163 36.3858 129.283 36.2654C129.403 36.145 129.485 35.9916 129.519 35.8247C129.552 35.6577 129.535 35.4846 129.47 35.3273C129.404 35.17 129.294 35.0356 129.153 34.941C129.011 34.8464 128.845 34.7959 128.674 34.7959C128.446 34.7959 128.227 34.8866 128.066 35.048C127.904 35.2095 127.813 35.4284 127.813 35.6567Z" fill="white"/>
</mask>
<g mask="url(#mask2_4011_3)">
<path d="M129.103 34.0502L127.067 35.2256L128.242 37.2615L130.278 36.086L129.103 34.0502Z" fill="url(#paint2_linear_4011_3)"/>
</g>
<mask id="mask3_4011_3" style="mask-type:luminance" maskUnits="userSpaceOnUse" x="89" y="0" width="81" height="82">
<path d="M90.6467 40.8286C90.6467 33.1159 92.9337 25.5765 97.2187 19.1636C101.504 12.7508 107.594 7.7526 114.719 4.8011C121.845 1.84959 129.686 1.07734 137.25 2.58201C144.815 4.08667 151.763 7.80067 157.217 13.2543C162.67 18.708 166.384 25.6564 167.889 33.2209C169.394 40.7853 168.622 48.6261 165.67 55.7517C162.719 62.8772 157.72 68.9675 151.307 73.2525C144.895 77.5374 137.355 79.8245 129.643 79.8245C119.304 79.8117 109.393 75.6991 102.082 68.3887C94.7721 61.0783 90.6595 51.167 90.6467 40.8286ZM89.4644 40.8286C89.4644 48.7751 91.8208 56.5431 96.2356 63.1504C100.65 69.7577 106.925 74.9074 114.267 77.9484C121.609 80.9894 129.687 81.7851 137.481 80.2348C145.275 78.6845 152.434 74.8579 158.053 69.2389C163.672 63.6198 167.498 56.4608 169.049 48.667C170.599 40.8732 169.803 32.7947 166.762 25.4531C163.721 18.1115 158.572 11.8365 151.964 7.42164C145.357 3.0068 137.589 0.650391 129.643 0.650391C118.99 0.662286 108.778 4.89915 101.245 12.4315C93.7131 19.9637 89.4763 30.1763 89.4644 40.8286Z" fill="white"/>
</mask>
<g mask="url(#mask3_4011_3)">
<path d="M149.732 -34.1454L54.6689 20.7393L109.554 115.802L204.617 60.9176L149.732 -34.1454Z" fill="url(#paint3_linear_4011_3)"/>
</g>
<mask id="mask4_4011_3" style="mask-type:luminance" maskUnits="userSpaceOnUse" x="0" y="92" width="18" height="16">
<path d="M16.4126 92.54L12.8691 104.011L8.88305 93.6636L4.85556 104.056L1.26365 92.54H0.22998L4.76567 107.094L8.88305 96.4396L12.959 107.094L17.4704 92.54H16.4126Z" fill="white"/>
</mask>
<g mask="url(#mask4_4011_3)">
<path d="M4.54195 85.0705L-6.07129 103.453L13.1616 114.557L23.7749 96.1746L4.54195 85.0705Z" fill="url(#paint4_linear_4011_3)"/>
</g>
<mask id="mask5_4011_3" style="mask-type:luminance" maskUnits="userSpaceOnUse" x="22" y="92" width="2" height="15">
<path d="M23.4824 92.54H22.4902V106.852H23.4824V92.54Z" fill="white"/>
</mask>
<g mask="url(#mask5_4011_3)">
<path d="M22.7372 92.1101L16.2915 103.274L23.2314 107.281L29.6771 96.1168L22.7372 92.1101Z" fill="url(#paint5_linear_4011_3)"/>
</g>
<mask id="mask6_4011_3" style="mask-type:luminance" maskUnits="userSpaceOnUse" x="29" y="92" width="16" height="15">
<path d="M37.0649 102.845L29.646 92.3633V106.852H30.6382V95.5127L37.0649 104.584L43.4086 95.5334V106.852H44.4008V92.3633L37.0649 102.845Z" fill="white"/>
</mask>
<g mask="url(#mask6_4011_3)">
<path d="M33.3351 85.9746L23.3735 103.229L40.7113 113.239L50.6729 95.9846L33.3351 85.9746Z" fill="url(#paint6_linear_4011_3)"/>
</g>
<mask id="mask7_4011_3" style="mask-type:luminance" maskUnits="userSpaceOnUse" x="50" y="92" width="16" height="15">
<path d="M57.7421 102.845L50.3232 92.3633V106.852H51.312V95.5127L57.7421 104.584L64.0824 95.5334V106.852H65.0746V92.3633L57.7421 102.845Z" fill="white"/>
</mask>
<g mask="url(#mask7_4011_3)">
<path d="M54.5016 85.6835L44.54 103.017L61.9574 113.027L71.919 95.6934L54.5016 85.6835Z" fill="url(#paint7_linear_4011_3)"/>
</g>
<mask id="mask8_4011_3" style="mask-type:luminance" maskUnits="userSpaceOnUse" x="70" y="92" width="11" height="15">
<path d="M70.9761 92.54V106.852H80.2445V105.819H71.9683V100.204H78.4192V99.1915H71.9683V93.553H80.2445V92.54H70.9761Z" fill="white"/>
</mask>
<g mask="url(#mask8_4011_3)">
<path d="M73.2916 88.5254L64.7769 103.273L77.9261 110.865L86.4409 96.1171L73.2916 88.5254Z" fill="url(#paint8_linear_4011_3)"/>
</g>
<mask id="mask9_4011_3" style="mask-type:luminance" maskUnits="userSpaceOnUse" x="85" y="92" width="11" height="15">
<path d="M85.6616 92.5393V106.852H86.6538V93.5315H90.6606C91.3465 93.5168 92.0259 93.6674 92.6415 93.9705C93.1727 94.2273 93.6279 94.6181 93.9621 95.1045C94.2603 95.5354 94.4218 96.0462 94.4253 96.5703C94.4252 97.1416 94.2314 97.6961 93.8756 98.1432C93.5345 98.5986 93.0886 98.965 92.5758 99.2115C91.7305 99.5197 90.8337 99.6618 89.9346 99.6298H88.1715L94.1176 106.852H95.4382L90.2526 100.577C90.7147 100.579 91.1764 100.554 91.6355 100.501C92.0977 100.442 92.5478 100.311 92.9699 100.114C93.6607 99.8179 94.2581 99.3399 94.6984 98.7309C95.0942 98.215 95.3399 97.5999 95.4082 96.9532C95.4765 96.3066 95.3649 95.6536 95.0856 95.0664C94.8506 94.5706 94.5164 94.1283 94.1038 93.7666C93.6559 93.3644 93.1331 93.0542 92.5654 92.8539C91.9577 92.6363 91.3164 92.5274 90.6709 92.5324L85.6616 92.5393Z" fill="white"/>
</mask>
<g mask="url(#mask9_4011_3)">
<path d="M88.1048 88.3098L79.4639 103.276L92.9934 111.088L101.634 96.121L88.1048 88.3098Z" fill="url(#paint9_linear_4011_3)"/>
</g>
<mask id="mask10_4011_3" style="mask-type:luminance" maskUnits="userSpaceOnUse" x="109" y="92" width="11" height="15">
<path d="M109.882 92.5393V106.852H110.874V93.5315H114.881C115.567 93.5172 116.246 93.6678 116.862 93.9706C117.393 94.2273 117.848 94.6182 118.182 95.1045C118.481 95.5354 118.642 96.0462 118.646 96.5703C118.645 97.1417 118.452 97.6962 118.096 98.1433C117.754 98.5979 117.308 98.9641 116.796 99.2115C115.951 99.5198 115.054 99.6618 114.155 99.6298H112.392L118.338 106.852H119.658L114.473 100.577C114.935 100.579 115.397 100.554 115.856 100.501C116.317 100.442 116.766 100.311 117.187 100.114C117.877 99.8179 118.475 99.34 118.915 98.731C119.311 98.2151 119.557 97.5999 119.625 96.9532C119.693 96.3066 119.582 95.6537 119.302 95.0665C119.064 94.5708 118.728 94.1285 118.314 93.7666C117.865 93.3636 117.341 93.0534 116.772 92.8539C116.165 92.636 115.525 92.5271 114.881 92.5324L109.882 92.5393Z" fill="white"/>
</mask>
<g mask="url(#mask10_4011_3)">
<path d="M112.325 88.3078L103.684 103.274L117.214 111.086L125.855 96.1191L112.325 88.3078Z" fill="url(#paint10_linear_4011_3)"/>
</g>
<mask id="mask11_4011_3" style="mask-type:luminance" maskUnits="userSpaceOnUse" x="125" y="92" width="10" height="15">
<path d="M125.141 92.54V106.852H134.41V105.819H126.133V100.204H132.584V99.1915H126.133V93.553H134.41V92.54H125.141Z" fill="white"/>
</mask>
<g mask="url(#mask11_4011_3)">
<path d="M127.455 88.5264L118.94 103.274L132.09 110.866L140.605 96.1181L127.455 88.5264Z" fill="url(#paint11_linear_4011_3)"/>
</g>
<mask id="mask12_4011_3" style="mask-type:luminance" maskUnits="userSpaceOnUse" x="139" y="92" width="14" height="15">
<path d="M145.838 94.8035L149.119 102.226H142.402L145.838 94.8035ZM139.142 106.848H140.245L141.939 103.215H149.544L151.152 106.848H152.262L145.897 92.3594L139.142 106.848Z" fill="white"/>
</mask>
<g mask="url(#mask12_4011_3)">
<path d="M142.419 86.693L132.87 103.231L148.968 112.526L158.517 95.9874L142.419 86.693Z" fill="url(#paint12_linear_4011_3)"/>
</g>
<mask id="mask13_4011_3" style="mask-type:luminance" maskUnits="userSpaceOnUse" x="157" y="92" width="10" height="15">
<path d="M157.002 92.54V106.852H166.028V105.86H157.994V92.54H157.002Z" fill="white"/>
</mask>
<g mask="url(#mask13_4011_3)">
<path d="M159.257 88.6331L150.803 103.276L163.769 110.763L172.224 96.1194L159.257 88.6331Z" fill="url(#paint13_linear_4011_3)"/>
</g>
<mask id="mask14_4011_3" style="mask-type:luminance" maskUnits="userSpaceOnUse" x="180" y="92" width="10" height="15">
<path d="M180.406 92.54V106.852H189.678V105.819H181.398V100.204H187.849V99.1915H181.398V93.553H189.678V92.54H180.406Z" fill="white"/>
</mask>
<g mask="url(#mask14_4011_3)">
<path d="M182.726 88.5254L174.211 103.273L187.36 110.865L195.875 96.1171L182.726 88.5254Z" fill="url(#paint14_linear_4011_3)"/>
</g>
<mask id="mask15_4011_3" style="mask-type:luminance" maskUnits="userSpaceOnUse" x="194" y="92" width="11" height="16">
<path d="M197.47 92.6504C196.878 92.8298 196.32 93.1054 195.817 93.4663C195.348 93.8022 194.955 94.2333 194.663 94.7316C194.395 95.1976 194.254 95.7257 194.255 96.2631C194.257 96.9397 194.473 97.5983 194.874 98.1437C195.312 98.7408 195.895 99.2166 196.568 99.5265C197.089 99.7647 197.642 99.9276 198.21 100.011L199.32 100.187C200.569 100.332 201.435 100.53 201.919 100.781C202.39 101.024 202.8 101.369 203.119 101.791C203.396 102.16 203.546 102.609 203.548 103.07C203.548 103.849 203.159 104.524 202.382 105.096C201.518 105.715 200.473 106.032 199.409 105.998C198.857 106.002 198.307 105.924 197.778 105.767C197.293 105.628 196.838 105.401 196.436 105.096C196.093 104.886 195.806 104.596 195.599 104.251C195.392 103.906 195.271 103.517 195.247 103.115L194.3 103.644C194.495 104.567 195.038 105.38 195.817 105.912C196.32 106.272 196.878 106.546 197.47 106.724C198.098 106.916 198.752 107.013 199.409 107.011C200.692 107.037 201.95 106.652 202.998 105.912C203.471 105.573 203.862 105.133 204.142 104.622C204.402 104.146 204.539 103.613 204.54 103.07C204.539 102.435 204.342 101.816 203.976 101.297C203.566 100.72 203.027 100.247 202.403 99.9137C202.098 99.7488 201.772 99.6233 201.435 99.5404C201.045 99.4339 200.647 99.353 200.246 99.2984L199.475 99.1877C198.887 99.1117 198.407 99.0426 198.033 98.9769C197.675 98.9186 197.326 98.8116 196.996 98.6588C196.501 98.4166 196.07 98.0613 195.738 97.6217C195.425 97.239 195.248 96.7638 195.233 96.27C195.237 95.8925 195.343 95.5232 195.541 95.2017C195.769 94.8331 196.068 94.5144 196.422 94.2649C196.828 93.9581 197.288 93.7306 197.778 93.5942C198.303 93.4383 198.848 93.3602 199.396 93.3626C199.94 93.3602 200.482 93.4383 201.003 93.5942C201.5 93.7344 201.968 93.9615 202.386 94.2649C202.725 94.5157 203.012 94.829 203.233 95.1879C203.425 95.5086 203.534 95.8722 203.551 96.2458L204.498 95.7168C204.309 94.8032 203.772 93.9987 203.001 93.4732C201.954 92.7309 200.696 92.3443 199.413 92.3704C198.756 92.3685 198.102 92.4652 197.473 92.6573" fill="white"/>
</mask>
<g mask="url(#mask15_4011_3)">
<path d="M196.828 87.9107L187.907 103.362L201.97 111.481L210.891 96.0296L196.828 87.9107Z" fill="url(#paint15_linear_4011_3)"/>
</g>
<mask id="mask16_4011_3" style="mask-type:luminance" maskUnits="userSpaceOnUse" x="208" y="92" width="13" height="15">
<path d="M208.437 92.54V93.553H214.117V106.852H215.129V93.553H220.789V92.54H208.437Z" fill="white"/>
</mask>
<g mask="url(#mask16_4011_3)">
<path d="M211.524 87.1901L202.238 103.273L217.699 112.2L226.985 96.1163L211.524 87.1901Z" fill="url(#paint16_linear_4011_3)"/>
</g>
<mask id="mask17_4011_3" style="mask-type:luminance" maskUnits="userSpaceOnUse" x="222" y="92" width="14" height="15">
<path d="M229.441 94.804L232.722 102.226H226.009L229.441 94.804ZM222.749 106.848H223.848L225.552 103.219H233.158L234.762 106.852H235.844L229.479 92.3633L222.749 106.848Z" fill="white"/>
</mask>
<g mask="url(#mask17_4011_3)">
<path d="M226.025 86.6901L216.477 103.229L232.575 112.523L242.123 95.9844L226.025 86.6901Z" fill="url(#paint17_linear_4011_3)"/>
</g>
<mask id="mask18_4011_3" style="mask-type:luminance" maskUnits="userSpaceOnUse" x="237" y="92" width="14" height="15">
<path d="M237.766 92.54V93.553H243.446V106.852H244.459V93.553H250.118V92.54H237.766Z" fill="white"/>
</mask>
<g mask="url(#mask18_4011_3)">
<path d="M240.852 87.1921L231.566 103.275L247.027 112.202L256.313 96.1182L240.852 87.1921Z" fill="url(#paint18_linear_4011_3)"/>
</g>
<mask id="mask19_4011_3" style="mask-type:luminance" maskUnits="userSpaceOnUse" x="254" y="92" width="11" height="15">
<path d="M254.961 92.54V106.852H264.23V105.819H255.954V100.204H262.405V99.1915H255.954V93.553H264.23V92.54H254.961Z" fill="white"/>
</mask>
<g mask="url(#mask19_4011_3)">
<path d="M257.28 88.5264L248.766 103.274L261.915 110.866L270.43 96.1181L257.28 88.5264Z" fill="url(#paint19_linear_4011_3)"/>
</g>
<defs>
<linearGradient id="paint0_linear_4011_3" x1="122.262" y1="57.1375" x2="102.926" y2="23.6475" gradientUnits="userSpaceOnUse">
<stop stop-color="#A28032"/>
<stop offset="0.12" stop-color="#A28032"/>
<stop offset="0.64" stop-color="#9E7B2F"/>
<stop offset="1" stop-color="#9E7B2F"/>
</linearGradient>
<linearGradient id="paint1_linear_4011_3" x1="150.837" y1="61.298" x2="129.609" y2="24.5297" gradientUnits="userSpaceOnUse">
<stop stop-color="#A28032"/>
<stop offset="0.12" stop-color="#A28032"/>
<stop offset="0.64" stop-color="#9E7B2F"/>
<stop offset="1" stop-color="#9E7B2F"/>
</linearGradient>
<linearGradient id="paint2_linear_4011_3" x1="128.345" y1="37.2193" x2="127.484" y2="35.7283" gradientUnits="userSpaceOnUse">
<stop stop-color="#A28032"/>
<stop offset="0.12" stop-color="#A28032"/>
<stop offset="0.64" stop-color="#9E7B2F"/>
<stop offset="1" stop-color="#9E7B2F"/>
</linearGradient>
<linearGradient id="paint3_linear_4011_3" x1="149.507" y1="76.0883" x2="109.335" y2="6.5096" gradientUnits="userSpaceOnUse">
<stop stop-color="#A28032"/>
<stop offset="0.12" stop-color="#A28032"/>
<stop offset="0.64" stop-color="#9E7B2F"/>
<stop offset="1" stop-color="#9E7B2F"/>
</linearGradient>
<linearGradient id="paint4_linear_4011_3" x1="-1.01085" y1="94.9584" x2="14.836" y2="104.108" gradientUnits="userSpaceOnUse">
<stop stop-color="#A28032"/>
<stop offset="0.12" stop-color="#A28032"/>
<stop offset="0.64" stop-color="#9E7B2F"/>
<stop offset="1" stop-color="#9E7B2F"/>
</linearGradient>
<linearGradient id="paint5_linear_4011_3" x1="19.3668" y1="98.2359" x2="26.3067" y2="102.243" gradientUnits="userSpaceOnUse">
<stop stop-color="#A28032"/>
<stop offset="0.12" stop-color="#A28032"/>
<stop offset="0.64" stop-color="#9E7B2F"/>
<stop offset="1" stop-color="#9E7B2F"/>
</linearGradient>
<linearGradient id="paint6_linear_4011_3" x1="28.3691" y1="94.7362" x2="45.7069" y2="104.746" gradientUnits="userSpaceOnUse">
<stop stop-color="#A28032"/>
<stop offset="0.12" stop-color="#A28032"/>
<stop offset="0.64" stop-color="#9E7B2F"/>
<stop offset="1" stop-color="#9E7B2F"/>
</linearGradient>
<linearGradient id="paint7_linear_4011_3" x1="49.5364" y1="94.4852" x2="66.9538" y2="104.495" gradientUnits="userSpaceOnUse">
<stop stop-color="#A28032"/>
<stop offset="0.12" stop-color="#A28032"/>
<stop offset="0.64" stop-color="#9E7B2F"/>
<stop offset="1" stop-color="#9E7B2F"/>
</linearGradient>
<linearGradient id="paint8_linear_4011_3" x1="68.8808" y1="96.3489" x2="82.0301" y2="103.941" gradientUnits="userSpaceOnUse">
<stop stop-color="#A28032"/>
<stop offset="0.12" stop-color="#A28032"/>
<stop offset="0.64" stop-color="#9E7B2F"/>
<stop offset="1" stop-color="#9E7B2F"/>
</linearGradient>
<linearGradient id="paint9_linear_4011_3" x1="83.722" y1="95.8632" x2="97.2515" y2="103.675" gradientUnits="userSpaceOnUse">
<stop stop-color="#A28032"/>
<stop offset="0.12" stop-color="#A28032"/>
<stop offset="0.64" stop-color="#9E7B2F"/>
<stop offset="1" stop-color="#9E7B2F"/>
</linearGradient>
<linearGradient id="paint10_linear_4011_3" x1="107.953" y1="95.8635" x2="121.482" y2="103.675" gradientUnits="userSpaceOnUse">
<stop stop-color="#A28032"/>
<stop offset="0.12" stop-color="#A28032"/>
<stop offset="0.64" stop-color="#9E7B2F"/>
<stop offset="1" stop-color="#9E7B2F"/>
</linearGradient>
<linearGradient id="paint11_linear_4011_3" x1="123.046" y1="96.3469" x2="136.195" y2="103.939" gradientUnits="userSpaceOnUse">
<stop stop-color="#A28032"/>
<stop offset="0.12" stop-color="#A28032"/>
<stop offset="0.64" stop-color="#9E7B2F"/>
<stop offset="1" stop-color="#9E7B2F"/>
</linearGradient>
<linearGradient id="paint12_linear_4011_3" x1="143.08" y1="96.5863" x2="154.127" y2="102.965" gradientUnits="userSpaceOnUse">
<stop stop-color="#A28032"/>
<stop offset="0.12" stop-color="#A28032"/>
<stop offset="0.64" stop-color="#9E7B2F"/>
<stop offset="1" stop-color="#9E7B2F"/>
</linearGradient>
<linearGradient id="paint13_linear_4011_3" x1="154.628" y1="97.3689" x2="167.594" y2="104.855" gradientUnits="userSpaceOnUse">
<stop stop-color="#A28032"/>
<stop offset="0.12" stop-color="#A28032"/>
<stop offset="0.64" stop-color="#9E7B2F"/>
<stop offset="1" stop-color="#9E7B2F"/>
</linearGradient>
<linearGradient id="paint14_linear_4011_3" x1="178.306" y1="96.3437" x2="191.455" y2="103.935" gradientUnits="userSpaceOnUse">
<stop stop-color="#A28032"/>
<stop offset="0.12" stop-color="#A28032"/>
<stop offset="0.64" stop-color="#9E7B2F"/>
<stop offset="1" stop-color="#9E7B2F"/>
</linearGradient>
<linearGradient id="paint15_linear_4011_3" x1="193.716" y1="96.6081" x2="205.116" y2="103.19" gradientUnits="userSpaceOnUse">
<stop stop-color="#A28032"/>
<stop offset="0.12" stop-color="#A28032"/>
<stop offset="0.64" stop-color="#9E7B2F"/>
<stop offset="1" stop-color="#9E7B2F"/>
</linearGradient>
<linearGradient id="paint16_linear_4011_3" x1="207.07" y1="94.6381" x2="218.289" y2="101.115" gradientUnits="userSpaceOnUse">
<stop stop-color="#A28032"/>
<stop offset="0.12" stop-color="#A28032"/>
<stop offset="0.64" stop-color="#9E7B2F"/>
<stop offset="1" stop-color="#9E7B2F"/>
</linearGradient>
<linearGradient id="paint17_linear_4011_3" x1="226.682" y1="96.5846" x2="237.729" y2="102.963" gradientUnits="userSpaceOnUse">
<stop stop-color="#A28032"/>
<stop offset="0.12" stop-color="#A28032"/>
<stop offset="0.64" stop-color="#9E7B2F"/>
<stop offset="1" stop-color="#9E7B2F"/>
</linearGradient>
<linearGradient id="paint18_linear_4011_3" x1="236.399" y1="94.6401" x2="247.617" y2="101.117" gradientUnits="userSpaceOnUse">
<stop stop-color="#A28032"/>
<stop offset="0.12" stop-color="#A28032"/>
<stop offset="0.64" stop-color="#9E7B2F"/>
<stop offset="1" stop-color="#9E7B2F"/>
</linearGradient>
<linearGradient id="paint19_linear_4011_3" x1="252.861" y1="96.3447" x2="266.01" y2="103.936" gradientUnits="userSpaceOnUse">
<stop stop-color="#A28032"/>
<stop offset="0.12" stop-color="#A28032"/>
<stop offset="0.64" stop-color="#9E7B2F"/>
<stop offset="1" stop-color="#9E7B2F"/>
</linearGradient>
</defs>
</svg>
