<svg width="161" height="72" viewBox="0 0 161 72" fill="none" xmlns="http://www.w3.org/2000/svg">
<mask id="mask0_4011_123" style="mask-type:luminance" maskUnits="userSpaceOnUse" x="9" y="21" width="27" height="30">
<path d="M29.2843 46.8948L28.2281 43.9335L27.6457 42.3011L24.7898 34.2908L24.6163 33.8045L24.2074 32.6553L23.7985 33.8045L23.6251 34.2908L19.1305 46.8948L10.1971 21.8447H9.0293L18.5481 48.5241L18.7433 49.0724L19.1305 50.1596L19.5146 49.0755L19.7128 48.5241L24.2074 35.9263L27.0634 43.9335L27.6457 45.5659L28.702 48.5241L28.8971 49.0755L29.2843 50.1596L29.6684 49.0724L29.8636 48.5241L35.5259 32.6553H34.3613L29.2843 46.8948Z" fill="white"/>
</mask>
<g mask="url(#mask0_4011_123)">
<path d="M28.9005 10.3715L-3.23145 28.9229L15.6529 61.6315L47.7848 43.0801L28.9005 10.3715Z" fill="url(#paint0_linear_4011_123)"/>
</g>
<mask id="mask1_4011_123" style="mask-type:luminance" maskUnits="userSpaceOnUse" x="28" y="21" width="34" height="30">
<path d="M49.7441 34.8744L45.677 23.4753L45.4818 22.927L45.4044 22.704H50.8933V22.6823C51.6721 22.7144 52.4384 22.8887 53.1545 23.1965C54.7525 23.8739 56.0236 25.1472 56.6982 26.7463C57.0416 27.5627 57.2185 28.4394 57.2185 29.3251C57.2185 30.2107 57.0416 31.0874 56.6982 31.9038C56.0236 33.4954 54.7593 34.7642 53.17 35.4443C52.3543 35.7912 51.4761 35.9673 50.5897 35.9616H50.1468L49.7441 34.8744ZM38.2831 21.5238V22.7195H44.788L44.7074 22.9394L44.5092 23.4908L40.0177 36.0886L37.1587 28.0783L36.5794 26.4366L35.5262 23.4815L35.328 22.9301L34.9439 21.846L34.5567 22.9301L34.3616 23.4815L28.7178 39.3008H29.8825L34.9439 25.1077L36.0002 28.069L36.5794 29.7014L39.4354 37.7117L39.5221 37.9564L39.6119 38.1981L39.8164 38.7742L40.0208 39.3472L40.4297 38.1981L40.6032 37.7117L45.0977 25.1077L47.5758 32.0803L48.2728 34.0411L48.7591 35.4133L48.9573 35.9647H45.677V37.117H49.3755L53.613 48.9869H44.0322V50.1578H55.1834L54.7653 48.9869L51.3301 39.3534L60.5268 50.1609H61.9671L50.8685 37.1108C51.8076 37.0792 52.7328 36.8744 53.5975 36.5068C55.4658 35.7121 56.9535 34.2244 57.7482 32.356C58.1509 31.3952 58.3583 30.3638 58.3583 29.322C58.3583 28.2801 58.1509 27.2487 57.7482 26.2879C56.9535 24.4195 55.4658 22.9318 53.5975 22.1371C52.6387 21.7251 51.6055 21.5142 50.5619 21.5176L38.2831 21.5238Z" fill="white"/>
</mask>
<g mask="url(#mask1_4011_123)">
<path d="M53.6664 7.12196L16.3223 28.6826L37.0357 64.5594L74.3799 42.9987L53.6664 7.12196Z" fill="url(#paint1_linear_4011_123)"/>
</g>
<mask id="mask2_4011_123" style="mask-type:luminance" maskUnits="userSpaceOnUse" x="34" y="30" width="2" height="3">
<path d="M34.3613 31.366C34.3613 31.5186 34.4066 31.6677 34.4913 31.7945C34.5761 31.9214 34.6965 32.0202 34.8375 32.0786C34.9784 32.137 35.1335 32.1523 35.2831 32.1225C35.4327 32.0927 35.5701 32.0193 35.678 31.9114C35.7859 31.8035 35.8593 31.6661 35.8891 31.5165C35.9189 31.3669 35.9036 31.2118 35.8452 31.0709C35.7868 30.9299 35.688 30.8095 35.5611 30.7247C35.4343 30.64 35.2852 30.5947 35.1326 30.5947C34.9281 30.5947 34.7319 30.676 34.5872 30.8206C34.4426 30.9653 34.3613 31.1615 34.3613 31.366Z" fill="white"/>
</mask>
<g mask="url(#mask2_4011_123)">
<path d="M35.5165 29.9268L33.6924 30.98L34.7456 32.8041L36.5697 31.751L35.5165 29.9268Z" fill="url(#paint2_linear_4011_123)"/>
</g>
<mask id="mask3_4011_123" style="mask-type:luminance" maskUnits="userSpaceOnUse" x="0" y="0" width="72" height="72">
<path d="M1.05936 36C1.05936 29.0894 3.1086 22.334 6.94793 16.588C10.7873 10.8421 16.2442 6.36364 22.6288 3.71907C29.0134 1.07449 36.0388 0.382552 42.8166 1.73074C49.5944 3.07894 55.8202 6.40671 60.7067 11.2932C65.5933 16.1798 68.9211 22.4056 70.2692 29.1834C71.6174 35.9612 70.9255 42.9866 68.2809 49.3712C65.6363 55.7558 61.1579 61.2127 55.412 65.0521C49.666 68.8914 42.9106 70.9406 36 70.9406C26.7367 70.9292 17.8561 67.2442 11.3059 60.6941C4.75576 54.1439 1.07084 45.2633 1.05936 36ZM0 36C0 43.1201 2.11136 50.0804 6.0671 56.0005C10.0228 61.9207 15.6453 66.5349 22.2234 69.2597C28.8015 71.9844 36.0399 72.6973 43.0232 71.3083C50.0066 69.9192 56.4211 66.4905 61.4558 61.4558C66.4905 56.4212 69.9192 50.0066 71.3083 43.0233C72.6973 36.0399 71.9844 28.8015 69.2596 22.2234C66.5349 15.6453 61.9207 10.0228 56.0005 6.06709C50.0803 2.11136 43.1201 0 36 0C26.4555 0.0106583 17.3049 3.80693 10.5559 10.5559C3.80692 17.3049 0.0106583 26.4555 0 36Z" fill="white"/>
</mask>
<g mask="url(#mask3_4011_123)">
<path d="M54.0004 -31.1766L-31.1768 18.0005L18.0003 103.178L103.178 54.0006L54.0004 -31.1766Z" fill="url(#paint3_linear_4011_123)"/>
</g>
<path d="M100.752 19.7998C100.955 20.0025 101.056 20.2638 101.056 20.5838C101.056 20.8505 100.998 21.1225 100.88 21.3998L97.1045 30.9998L96.9285 31.0798L94.8165 24.3758L92.2085 30.9998L92.0325 31.0798L88.4805 19.7998H89.8405L92.7045 29.2718L94.7365 24.1198L93.3765 19.7998H94.7365L97.6005 29.2718L100.688 21.3998C100.806 21.1331 100.864 20.8558 100.864 20.5678C100.864 20.2798 100.784 20.0558 100.624 19.8958L100.752 19.7998Z" fill="black"/>
<path d="M103.804 30.9998C103.366 30.9998 103.03 30.9038 102.796 30.7118C102.572 30.5198 102.454 30.3278 102.444 30.1358L102.428 29.8638V22.9998H103.548V29.8638C103.548 30.1731 103.606 30.4131 103.724 30.5838C103.852 30.7438 103.974 30.8291 104.092 30.8398L104.284 30.8718H104.78V30.9998H103.804ZM102.524 21.2078C102.396 21.0798 102.332 20.9198 102.332 20.7278C102.332 20.5358 102.396 20.3758 102.524 20.2478C102.652 20.1091 102.812 20.0398 103.004 20.0398C103.196 20.0398 103.356 20.1091 103.484 20.2478C103.622 20.3758 103.692 20.5358 103.692 20.7278C103.692 20.9198 103.622 21.0798 103.484 21.2078C103.356 21.3358 103.196 21.3998 103.004 21.3998C102.812 21.3998 102.652 21.3358 102.524 21.2078Z" fill="black"/>
<path d="M115.398 24.8398C115.398 24.1891 115.313 23.7305 115.142 23.4638C114.971 23.1971 114.646 23.0638 114.166 23.0638C113.526 23.0638 112.955 23.3305 112.454 23.8638C111.963 24.3971 111.718 24.8771 111.718 25.3038V30.9998H110.598V24.8398C110.598 24.1891 110.513 23.7305 110.342 23.4638C110.171 23.1971 109.809 23.0638 109.254 23.0638C108.699 23.0638 108.171 23.3198 107.67 23.8318C107.179 24.3438 106.913 24.8185 106.87 25.2558V30.9998H105.75V22.9998H106.87V24.8078C107.041 24.3491 107.355 23.9225 107.814 23.5278C108.273 23.1331 108.785 22.9358 109.35 22.9358C109.915 22.9358 110.363 22.9891 110.694 23.0958C111.035 23.1918 111.275 23.3465 111.414 23.5598C111.553 23.7731 111.638 23.9598 111.67 24.1198C111.702 24.2798 111.718 24.5038 111.718 24.7918C111.889 24.3331 112.198 23.9118 112.646 23.5278C113.094 23.1331 113.574 22.9358 114.086 22.9358C114.598 22.9358 115.009 22.9785 115.318 23.0638C115.627 23.1491 115.857 23.2451 116.006 23.3518C116.166 23.4585 116.283 23.6131 116.358 23.8158C116.443 24.0185 116.491 24.1838 116.502 24.3118C116.513 24.4398 116.518 24.6211 116.518 24.8558V29.8638C116.518 30.1731 116.577 30.4131 116.694 30.5838C116.822 30.7438 116.95 30.8291 117.078 30.8398L117.254 30.8718H117.75V30.9998H116.774C116.337 30.9998 116.001 30.9038 115.766 30.7118C115.542 30.5198 115.425 30.3278 115.414 30.1358L115.398 29.8638V24.8398Z" fill="black"/>
<path d="M127.882 24.8398C127.882 24.1891 127.797 23.7305 127.626 23.4638C127.456 23.1971 127.13 23.0638 126.65 23.0638C126.01 23.0638 125.44 23.3305 124.938 23.8638C124.448 24.3971 124.202 24.8771 124.202 25.3038V30.9998H123.082V24.8398C123.082 24.1891 122.997 23.7305 122.826 23.4638C122.656 23.1971 122.293 23.0638 121.738 23.0638C121.184 23.0638 120.656 23.3198 120.154 23.8318C119.664 24.3438 119.397 24.8185 119.354 25.2558V30.9998H118.234V22.9998H119.354V24.8078C119.525 24.3491 119.84 23.9225 120.298 23.5278C120.757 23.1331 121.269 22.9358 121.834 22.9358C122.4 22.9358 122.848 22.9891 123.178 23.0958C123.52 23.1918 123.76 23.3465 123.898 23.5598C124.037 23.7731 124.122 23.9598 124.154 24.1198C124.186 24.2798 124.202 24.5038 124.202 24.7918C124.373 24.3331 124.682 23.9118 125.13 23.5278C125.578 23.1331 126.058 22.9358 126.57 22.9358C127.082 22.9358 127.493 22.9785 127.802 23.0638C128.112 23.1491 128.341 23.2451 128.49 23.3518C128.65 23.4585 128.768 23.6131 128.842 23.8158C128.928 24.0185 128.976 24.1838 128.986 24.3118C128.997 24.4398 129.002 24.6211 129.002 24.8558V29.8638C129.002 30.1731 129.061 30.4131 129.178 30.5838C129.306 30.7438 129.434 30.8291 129.562 30.8398L129.738 30.8718H130.234V30.9998H129.258C128.821 30.9998 128.485 30.9038 128.25 30.7118C128.026 30.5198 127.909 30.3278 127.898 30.1358L127.882 29.8638V24.8398Z" fill="black"/>
<path d="M131.807 27.0958C131.807 28.4185 132.036 29.3891 132.495 30.0078C132.964 30.6265 133.577 30.9358 134.335 30.9358C135.401 30.9358 136.351 30.7758 137.183 30.4558L137.231 30.5678C136.377 30.8985 135.412 31.0638 134.335 31.0638C133.268 31.0638 132.399 30.7438 131.727 30.1038C131.055 29.4638 130.719 28.4771 130.719 27.1438C130.719 25.8105 131.071 24.7758 131.775 24.0398C132.479 23.3038 133.375 22.9358 134.463 22.9358C135.337 22.9358 136.073 23.1971 136.671 23.7198C137.268 24.2425 137.567 25.0158 137.567 26.0398C137.567 26.0931 137.567 26.1465 137.567 26.1998H131.855C131.823 26.4878 131.807 26.7865 131.807 27.0958ZM136.479 26.0718C136.468 25.0478 136.271 24.2905 135.887 23.7998C135.503 23.3091 135.007 23.0638 134.399 23.0638C133.791 23.0638 133.247 23.3305 132.767 23.8638C132.297 24.3971 131.999 25.1331 131.871 26.0718H136.479Z" fill="black"/>
<path d="M141.275 23.6878V23.3518C140.795 23.5438 140.357 23.9331 139.963 24.5198C139.568 25.0958 139.36 25.6398 139.339 26.1518V30.9998H138.219V22.9998H139.339V25.5438C139.509 24.9251 139.835 24.3438 140.315 23.7998C140.795 23.2451 141.339 22.9571 141.947 22.9358H142.011C142.224 22.9358 142.4 23.0105 142.539 23.1598C142.688 23.2985 142.763 23.4745 142.763 23.6878C142.763 23.9011 142.688 24.0771 142.539 24.2158C142.4 24.3545 142.224 24.4238 142.011 24.4238C141.797 24.4238 141.621 24.3545 141.483 24.2158C141.344 24.0771 141.275 23.9011 141.275 23.6878Z" fill="black"/>
<path d="M89.1205 40.9598V40.7998H91.9685V40.9598H91.1845V51.8398H91.9685V51.9998H89.1205V51.8398H89.8565V40.9598H89.1205Z" fill="black"/>
<path d="M102.898 45.8398C102.898 45.1891 102.813 44.7305 102.642 44.4638C102.471 44.1971 102.146 44.0638 101.666 44.0638C101.026 44.0638 100.455 44.3305 99.9538 44.8638C99.4632 45.3971 99.2178 45.8771 99.2178 46.3038V51.9998H98.0978V45.8398C98.0978 45.1891 98.0125 44.7305 97.8418 44.4638C97.6712 44.1971 97.3085 44.0638 96.7538 44.0638C96.1992 44.0638 95.6712 44.3198 95.1698 44.8318C94.6792 45.3438 94.4125 45.8185 94.3698 46.2558V51.9998H93.2498V43.9998H94.3698V45.8078C94.5405 45.3491 94.8552 44.9225 95.3138 44.5278C95.7725 44.1331 96.2845 43.9358 96.8498 43.9358C97.4152 43.9358 97.8632 43.9891 98.1938 44.0958C98.5352 44.1918 98.7752 44.3465 98.9138 44.5598C99.0525 44.7731 99.1378 44.9598 99.1698 45.1198C99.2018 45.2798 99.2178 45.5038 99.2178 45.7918C99.3885 45.3331 99.6978 44.9118 100.146 44.5278C100.594 44.1331 101.074 43.9358 101.586 43.9358C102.098 43.9358 102.509 43.9785 102.818 44.0638C103.127 44.1491 103.357 44.2451 103.506 44.3518C103.666 44.4585 103.783 44.6131 103.858 44.8158C103.943 45.0185 103.991 45.1838 104.002 45.3118C104.013 45.4398 104.018 45.6211 104.018 45.8558V50.8638C104.018 51.1731 104.077 51.4131 104.194 51.5838C104.322 51.7438 104.45 51.8291 104.578 51.8398L104.754 51.8718H105.25V51.9998H104.274C103.837 51.9998 103.501 51.9038 103.266 51.7118C103.042 51.5198 102.925 51.3278 102.914 51.1358L102.898 50.8638V45.8398Z" fill="black"/>
<path d="M115.382 45.8398C115.382 45.1891 115.297 44.7305 115.126 44.4638C114.956 44.1971 114.63 44.0638 114.15 44.0638C113.51 44.0638 112.94 44.3305 112.438 44.8638C111.948 45.3971 111.702 45.8771 111.702 46.3038V51.9998H110.582V45.8398C110.582 45.1891 110.497 44.7305 110.326 44.4638C110.156 44.1971 109.793 44.0638 109.238 44.0638C108.684 44.0638 108.156 44.3198 107.654 44.8318C107.164 45.3438 106.897 45.8185 106.854 46.2558V51.9998H105.734V43.9998H106.854V45.8078C107.025 45.3491 107.34 44.9225 107.798 44.5278C108.257 44.1331 108.769 43.9358 109.334 43.9358C109.9 43.9358 110.348 43.9891 110.678 44.0958C111.02 44.1918 111.26 44.3465 111.398 44.5598C111.537 44.7731 111.622 44.9598 111.654 45.1198C111.686 45.2798 111.702 45.5038 111.702 45.7918C111.873 45.3331 112.182 44.9118 112.63 44.5278C113.078 44.1331 113.558 43.9358 114.07 43.9358C114.582 43.9358 114.993 43.9785 115.302 44.0638C115.612 44.1491 115.841 44.2451 115.99 44.3518C116.15 44.4585 116.268 44.6131 116.342 44.8158C116.428 45.0185 116.476 45.1838 116.486 45.3118C116.497 45.4398 116.502 45.6211 116.502 45.8558V50.8638C116.502 51.1731 116.561 51.4131 116.678 51.5838C116.806 51.7438 116.934 51.8291 117.062 51.8398L117.238 51.8718H117.734V51.9998H116.758C116.321 51.9998 115.985 51.9038 115.75 51.7118C115.526 51.5198 115.409 51.3278 115.398 51.1358L115.382 50.8638V45.8398Z" fill="black"/>
<path d="M121.839 52.0638C120.719 52.0638 119.807 51.7438 119.103 51.1038C118.399 50.4638 118.047 49.4771 118.047 48.1438C118.047 46.8105 118.409 45.7758 119.135 45.0398C119.871 44.3038 120.799 43.9358 121.919 43.9358C123.049 43.9358 123.967 44.2558 124.671 44.8958C125.375 45.5358 125.727 46.5225 125.727 47.8558C125.727 49.1891 125.359 50.2238 124.623 50.9598C123.897 51.6958 122.969 52.0638 121.839 52.0638ZM121.951 44.0638C121.14 44.0638 120.468 44.4265 119.935 45.1518C119.401 45.8665 119.135 46.8691 119.135 48.1598C119.135 49.4398 119.38 50.3891 119.871 51.0078C120.361 51.6265 121.012 51.9358 121.823 51.9358C122.633 51.9358 123.305 51.5785 123.839 50.8638C124.372 50.1385 124.639 49.1358 124.639 47.8558C124.639 46.5651 124.393 45.6105 123.903 44.9918C123.412 44.3731 122.761 44.0638 121.951 44.0638Z" fill="black"/>
<path d="M126.687 40.0158H127.807V45.9838C127.989 45.4931 128.325 45.0291 128.815 44.5918C129.306 44.1545 129.861 43.9358 130.479 43.9358C132.645 43.9358 133.727 45.2051 133.727 47.7438C133.727 50.6238 132.33 52.0638 129.535 52.0638C128.714 52.0638 127.765 51.9305 126.687 51.6638V40.0158ZM130.463 44.0638C129.802 44.0638 129.205 44.3518 128.671 44.9278C128.138 45.4931 127.85 46.0051 127.807 46.4638V51.5678C128.458 51.8131 129.029 51.9358 129.519 51.9358C131.578 51.9358 132.607 50.5331 132.607 47.7278C132.607 45.2851 131.893 44.0638 130.463 44.0638Z" fill="black"/>
<path d="M136.632 51.9998C136.195 51.9998 135.859 51.9038 135.624 51.7118C135.4 51.5198 135.283 51.3278 135.272 51.1358L135.256 50.8638V43.9998H136.376V50.8638C136.376 51.1731 136.435 51.4131 136.552 51.5838C136.68 51.7438 136.803 51.8291 136.92 51.8398L137.112 51.8718H137.608V51.9998H136.632ZM135.352 42.2078C135.224 42.0798 135.16 41.9198 135.16 41.7278C135.16 41.5358 135.224 41.3758 135.352 41.2478C135.48 41.1091 135.64 41.0398 135.832 41.0398C136.024 41.0398 136.184 41.1091 136.312 41.2478C136.451 41.3758 136.52 41.5358 136.52 41.7278C136.52 41.9198 136.451 42.0798 136.312 42.2078C136.184 42.3358 136.024 42.3998 135.832 42.3998C135.64 42.3998 135.48 42.3358 135.352 42.2078Z" fill="black"/>
<path d="M140.922 51.9998C139.984 51.9998 139.392 51.7545 139.146 51.2638C139.093 51.1571 139.066 51.0611 139.066 50.9758V40.0158H140.186V50.8638C140.186 51.1731 140.245 51.4131 140.362 51.5838C140.49 51.7438 140.618 51.8291 140.746 51.8398L140.922 51.8718H141.418V51.9998H140.922Z" fill="black"/>
<path d="M143.944 51.9998C143.507 51.9998 143.171 51.9038 142.936 51.7118C142.712 51.5198 142.595 51.3278 142.584 51.1358L142.568 50.8638V43.9998H143.688V50.8638C143.688 51.1731 143.747 51.4131 143.864 51.5838C143.992 51.7438 144.115 51.8291 144.232 51.8398L144.424 51.8718H144.92V51.9998H143.944ZM142.664 42.2078C142.536 42.0798 142.472 41.9198 142.472 41.7278C142.472 41.5358 142.536 41.3758 142.664 41.2478C142.792 41.1091 142.952 41.0398 143.144 41.0398C143.336 41.0398 143.496 41.1091 143.624 41.2478C143.763 41.3758 143.832 41.5358 143.832 41.7278C143.832 41.9198 143.763 42.0798 143.624 42.2078C143.496 42.3358 143.336 42.3998 143.144 42.3998C142.952 42.3998 142.792 42.3358 142.664 42.2078Z" fill="black"/>
<path d="M146.494 48.0958C146.494 49.4185 146.723 50.3891 147.182 51.0078C147.651 51.6265 148.265 51.9358 149.022 51.9358C150.089 51.9358 151.038 51.7758 151.87 51.4558L151.918 51.5678C151.065 51.8985 150.099 52.0638 149.022 52.0638C147.955 52.0638 147.086 51.7438 146.414 51.1038C145.742 50.4638 145.406 49.4771 145.406 48.1438C145.406 46.8105 145.758 45.7758 146.462 45.0398C147.166 44.3038 148.062 43.9358 149.15 43.9358C150.025 43.9358 150.761 44.1971 151.358 44.7198C151.955 45.2425 152.254 46.0158 152.254 47.0398C152.254 47.0931 152.254 47.1465 152.254 47.1998H146.542C146.51 47.4878 146.494 47.7865 146.494 48.0958ZM151.166 47.0718C151.155 46.0478 150.958 45.2905 150.574 44.7998C150.19 44.3091 149.694 44.0638 149.086 44.0638C148.478 44.0638 147.934 44.3305 147.454 44.8638C146.985 45.3971 146.686 46.1331 146.558 47.0718H151.166Z" fill="black"/>
<path d="M159.546 51.9998C159.109 51.9998 158.773 51.9038 158.538 51.7118C158.314 51.5198 158.197 51.3278 158.186 51.1358L158.17 50.8638V45.8398C158.17 44.9971 157.951 44.4585 157.514 44.2238C157.29 44.1171 157.013 44.0638 156.682 44.0638C155.999 44.0638 155.386 44.3358 154.842 44.8798C154.298 45.4131 154.026 45.8931 154.026 46.3198V51.9998H152.906V43.9998H154.026V45.8238C154.207 45.3651 154.543 44.9385 155.034 44.5438C155.525 44.1385 156.063 43.9358 156.65 43.9358C157.237 43.9358 157.711 43.9945 158.074 44.1118C158.447 44.2185 158.719 44.3731 158.89 44.5758C159.157 44.9065 159.29 45.3331 159.29 45.8558V50.8638C159.29 51.1731 159.349 51.4131 159.466 51.5838C159.594 51.7438 159.722 51.8291 159.85 51.8398L160.026 51.8718H160.522V51.9998H159.546Z" fill="black"/>
<defs>
<linearGradient id="paint0_linear_4011_123" x1="29.3865" y1="50.6132" x2="12.0618" y2="20.6059" gradientUnits="userSpaceOnUse">
<stop stop-color="#A28032"/>
<stop offset="0.12" stop-color="#A28032"/>
<stop offset="0.64" stop-color="#9E7B2F"/>
<stop offset="1" stop-color="#9E7B2F"/>
</linearGradient>
<linearGradient id="paint1_linear_4011_123" x1="54.9905" y1="54.3398" x2="35.9699" y2="21.395" gradientUnits="userSpaceOnUse">
<stop stop-color="#A28032"/>
<stop offset="0.12" stop-color="#A28032"/>
<stop offset="0.64" stop-color="#9E7B2F"/>
<stop offset="1" stop-color="#9E7B2F"/>
</linearGradient>
<linearGradient id="paint2_linear_4011_123" x1="34.8377" y1="32.7664" x2="34.0664" y2="31.4305" gradientUnits="userSpaceOnUse">
<stop stop-color="#A28032"/>
<stop offset="0.12" stop-color="#A28032"/>
<stop offset="0.64" stop-color="#9E7B2F"/>
<stop offset="1" stop-color="#9E7B2F"/>
</linearGradient>
<linearGradient id="paint3_linear_4011_123" x1="53.7986" y1="67.5937" x2="17.8048" y2="5.25059" gradientUnits="userSpaceOnUse">
<stop stop-color="#A28032"/>
<stop offset="0.12" stop-color="#A28032"/>
<stop offset="0.64" stop-color="#9E7B2F"/>
<stop offset="1" stop-color="#9E7B2F"/>
</linearGradient>
</defs>
</svg>
